 <svg version="1.0" xmlns="http://www.w3.org/2000/svg" width="700.000000pt" height="700.000000pt" viewBox="0 0 700.000000 700.000000" preserveAspectRatio="xMidYMid meet">
<metadata>
Created by potrace 1.12, written by Peter Selinger 2001-2015
</metadata>
<g transform="translate(0.000000,700.000000) scale(0.100000,-0.100000)" fill="#000000" stroke="none">
<path d="M3300 6740 c-193 -13 -385 -47 -670 -120 -103 -26 -167 -42 -200 -49
-19 -4 -66 -22 -105 -40 -38 -19 -119 -55 -180 -82 -133 -60 -210 -100 -286
-151 -32 -21 -71 -43 -86 -50 -34 -15 -141 -90 -197 -138 -23 -20 -67 -55 -98
-79 -32 -24 -95 -79 -140 -123 -46 -45 -100 -91 -120 -104 -20 -13 -45 -36
-55 -51 -10 -15 -39 -48 -64 -73 -66 -65 -149 -165 -149 -178 0 -6 -6 -15 -13
-19 -19 -11 -113 -143 -121 -170 -4 -13 -11 -23 -16 -23 -5 0 -21 -26 -36 -57
-14 -32 -53 -98 -85 -146 -33 -49 -84 -148 -115 -220 -31 -73 -60 -137 -65
-142 -8 -11 -58 -139 -90 -234 -11 -30 -19 -66 -19 -80 0 -15 -9 -53 -21 -85
-11 -32 -31 -111 -45 -175 -103 -477 -90 -992 35 -1451 6 -19 15 -55 21 -80
30 -118 40 -151 73 -236 19 -50 40 -99 46 -110 6 -10 35 -75 64 -144 29 -69
77 -161 106 -205 30 -44 69 -110 87 -146 18 -36 40 -72 49 -79 8 -7 15 -18 15
-25 0 -13 82 -131 104 -150 6 -5 23 -29 38 -52 16 -23 62 -77 103 -119 41 -42
75 -80 75 -85 0 -4 35 -38 78 -74 42 -37 113 -100 157 -141 44 -40 109 -96
145 -123 36 -28 100 -78 143 -111 43 -33 82 -60 87 -60 9 0 86 -46 161 -96 48
-33 465 -225 509 -235 64 -15 164 -41 230 -59 385 -110 845 -148 1212 -100
156 20 428 76 507 104 24 9 56 16 72 16 15 0 51 9 79 20 28 11 61 20 74 20 13
0 65 20 115 45 50 25 94 45 97 45 3 0 31 13 62 28 32 16 68 31 82 35 19 5 262
142 326 185 91 60 128 87 174 130 30 28 59 52 64 52 10 0 113 87 172 145 22
22 64 58 93 80 29 22 72 66 97 98 25 31 49 57 54 57 10 0 120 133 120 145 0 4
22 31 48 60 27 29 61 78 77 109 15 31 36 63 47 72 10 10 18 21 18 26 0 8 55
102 112 191 33 51 63 112 157 322 60 135 101 249 101 279 0 13 9 49 20 82 33
95 78 289 100 433 17 113 20 183 20 453 0 294 -2 331 -25 471 -14 84 -41 211
-61 282 -19 72 -40 153 -46 180 -17 80 -65 207 -144 382 -41 90 -74 166 -74
170 0 3 -20 36 -44 72 -78 118 -116 181 -116 195 0 7 -9 21 -19 30 -11 10 -27
34 -37 54 -20 43 -82 129 -113 156 -11 11 -21 23 -21 28 0 14 -98 129 -147
171 -23 21 -43 45 -43 52 0 8 -17 27 -37 42 -67 50 -137 109 -198 168 -33 32
-78 70 -99 84 -22 14 -58 42 -80 62 -53 47 -175 139 -185 139 -4 0 -57 30
-117 67 -60 36 -163 91 -229 120 -66 30 -151 69 -190 87 -38 18 -86 38 -105
44 -139 43 -173 52 -195 52 -14 0 -42 7 -62 15 -47 18 -337 81 -441 95 -95 12
-378 30 -452 28 -30 0 -107 -4 -170 -8z m628 -160 c26 -4 94 -15 152 -24 170
-27 274 -56 530 -145 163 -56 601 -292 669 -360 11 -11 35 -27 53 -35 18 -7
67 -46 108 -86 41 -39 89 -80 105 -91 50 -32 276 -242 291 -272 8 -15 48 -64
89 -109 41 -45 82 -98 91 -118 10 -19 34 -55 55 -79 22 -24 51 -69 66 -100 14
-31 32 -63 39 -71 44 -54 218 -410 227 -463 3 -21 17 -61 30 -90 14 -29 28
-63 32 -77 3 -14 22 -74 40 -135 54 -179 75 -282 88 -425 15 -172 15 -624 0
-800 -16 -187 -83 -452 -168 -667 -14 -34 -25 -70 -25 -81 0 -11 -39 -96 -86
-189 -48 -92 -94 -181 -102 -198 -9 -16 -26 -44 -39 -61 -13 -17 -23 -36 -23
-43 0 -15 -50 -90 -97 -145 -18 -22 -33 -45 -33 -52 0 -14 -57 -87 -129 -164
-28 -30 -51 -58 -51 -63 0 -14 -218 -224 -280 -270 -30 -22 -90 -73 -132 -114
-43 -40 -84 -73 -93 -73 -8 0 -29 -13 -47 -29 -41 -35 -233 -161 -246 -161 -5
0 -45 -20 -89 -44 -120 -66 -260 -132 -343 -161 -217 -75 -348 -115 -394 -121
-28 -3 -112 -17 -186 -32 -131 -25 -146 -26 -520 -26 -378 0 -388 0 -540 28
-236 42 -455 99 -504 131 -11 8 -46 21 -76 29 -58 15 -244 102 -345 161 -33
19 -65 35 -72 35 -7 0 -67 37 -134 83 -67 45 -137 92 -157 104 -36 22 -43 28
-154 128 -37 33 -85 74 -107 90 -23 17 -65 54 -94 84 -28 29 -74 74 -100 100
-27 25 -55 57 -62 71 -7 14 -33 45 -57 70 -58 60 -128 149 -128 164 0 7 -8 21
-18 32 -31 35 -89 118 -110 159 -11 22 -48 92 -82 155 -84 156 -159 317 -170
365 -6 22 -34 114 -65 205 -112 335 -143 587 -130 1060 8 282 35 440 125 730
18 58 39 117 46 133 8 15 19 48 24 75 12 62 193 436 233 480 9 10 17 24 17 31
0 15 64 116 101 159 16 18 29 38 29 44 0 13 102 148 112 148 5 0 28 28 53 61
54 73 226 244 303 301 30 22 86 71 126 109 39 38 89 77 112 88 22 11 46 26 53
35 8 9 48 37 90 63 42 26 89 57 104 70 16 13 36 23 44 23 9 0 50 20 92 44 88
51 267 133 361 165 291 99 336 111 485 131 50 7 101 17 115 22 62 25 767 31
898 8z"></path>
<path d="M3395 6333 c-135 -5 -286 -24 -427 -54 -79 -16 -168 -34 -198 -39
-60 -10 -225 -64 -305 -99 -205 -92 -336 -160 -438 -227 -45 -30 -89 -54 -98
-54 -9 0 -24 -9 -35 -21 -10 -12 -32 -28 -49 -36 -32 -17 -111 -77 -135 -103
-8 -9 -31 -27 -51 -39 -21 -12 -63 -52 -94 -89 -31 -37 -79 -87 -106 -111 -67
-59 -141 -150 -137 -170 3 -14 17 -16 98 -13 l95 4 39 46 c51 60 176 184 246
243 75 63 262 189 335 226 111 55 170 85 275 139 57 30 129 61 160 70 30 8 69
20 85 25 237 79 423 116 712 139 225 19 559 -21 818 -97 66 -20 152 -44 190
-55 84 -23 201 -76 310 -140 44 -27 85 -48 91 -48 29 0 275 -155 379 -238 174
-140 484 -491 585 -664 14 -25 29 -38 43 -38 12 -1 57 -9 100 -19 97 -23 104
-14 49 59 -22 28 -49 72 -62 97 -12 25 -35 59 -49 77 -15 17 -64 78 -108 136
-44 58 -122 148 -173 200 -50 52 -103 109 -116 126 -28 36 -194 175 -257 216
-23 15 -54 36 -68 47 -15 11 -38 25 -51 30 -14 5 -70 39 -125 75 -55 36 -132
80 -169 97 -38 18 -110 52 -161 75 -112 53 -310 123 -378 134 -27 4 -119 22
-203 39 -210 43 -420 61 -617 54z"></path>
<path d="M3190 6011 c-5 -11 -10 -34 -10 -51 0 -65 9 -70 128 -70 59 0 112 -4
118 -8 8 -5 13 -108 16 -348 3 -268 6 -345 17 -358 18 -21 103 -22 121 -1 9
11 14 110 19 362 l6 348 109 3 c61 1 116 8 123 14 16 13 17 100 1 116 -9 9
-95 12 -325 12 -299 0 -313 -1 -323 -19z"></path>
<path d="M4392 5760 c-43 -19 -102 -70 -102 -87 0 -11 55 -53 70 -53 6 0 23 8
37 18 19 12 47 17 91 17 55 0 66 -3 83 -24 10 -13 19 -38 19 -57 0 -42 -51
-87 -107 -94 -30 -4 -39 -10 -41 -29 -7 -48 6 -70 46 -77 104 -18 144 -94 82
-156 -28 -28 -35 -30 -85 -26 -51 4 -68 12 -127 60 l-27 21 -35 -27 c-20 -15
-36 -31 -36 -36 0 -15 81 -104 109 -119 18 -10 58 -15 128 -15 118 0 136 8
189 86 55 82 53 175 -7 243 l-30 34 27 47 c20 35 28 62 29 98 1 145 -170 241
-313 176z"></path>
<path d="M2433 5667 c-101 -101 -112 -126 -70 -165 13 -12 28 -22 34 -22 6 0
32 20 57 45 26 25 49 45 51 45 3 0 6 -114 7 -252 l3 -253 55 0 55 0 0 345 0
345 -50 3 -50 2 -92 -93z"></path>
<path d="M2975 5261 c-45 -19 -50 -37 -55 -195 l-5 -151 -147 -3 c-145 -2
-147 -3 -167 -29 -18 -22 -21 -40 -21 -128 0 -103 0 -103 31 -129 30 -25 35
-26 170 -26 l139 0 0 -153 c0 -203 -5 -197 144 -197 154 0 150 -5 154 196 l4
154 299 0 299 0 0 -147 c0 -205 -6 -197 147 -201 l122 -3 16 30 c11 23 15 64
15 176 l0 145 145 0 c151 0 195 9 209 45 3 9 6 63 6 119 0 146 1 145 -200 148
l-155 3 -5 152 c-6 196 -7 196 -145 201 -94 4 -95 4 -125 -26 l-30 -30 0 -151
0 -151 -300 0 c-165 0 -300 3 -301 8 0 4 -1 73 -2 154 -2 139 -3 149 -25 170
-20 20 -34 23 -110 25 -48 2 -96 -1 -107 -6z"></path>
<path d="M1262 5229 c-96 -12 -203 -41 -209 -55 -6 -17 21 -145 47 -219 12
-33 28 -81 35 -106 7 -26 21 -62 30 -80 36 -69 144 -226 194 -281 49 -54 171
-158 185 -158 3 0 24 -13 47 -29 45 -33 246 -103 354 -123 150 -28 538 -8 552
28 15 39 -35 216 -98 350 -22 45 -39 87 -39 94 0 6 -13 30 -28 53 -16 23 -41
64 -56 91 -32 54 -191 219 -246 253 -70 44 -213 115 -281 139 -140 50 -313 66
-487 43z m369 -169 c44 -11 94 -27 112 -35 17 -7 44 -16 59 -19 51 -11 245
-165 284 -227 12 -20 35 -50 51 -67 32 -35 133 -207 133 -226 0 -7 11 -41 25
-76 14 -36 23 -70 20 -77 -13 -35 -421 -2 -535 43 -55 22 -190 102 -190 113 0
5 -19 21 -42 37 -39 27 -198 216 -198 235 0 5 -17 44 -39 88 -34 70 -81 193
-81 212 0 12 44 16 188 18 105 1 151 -3 213 -19z"></path>
<path d="M1026 4898 c-8 -13 -28 -52 -44 -88 -81 -175 -102 -221 -102 -226 0
-3 -11 -30 -26 -61 -14 -31 -28 -70 -30 -87 -6 -35 -41 -150 -54 -181 -5 -11
-11 -38 -14 -60 -2 -22 -19 -119 -37 -215 -33 -174 -34 -177 -33 -470 0 -238
3 -312 17 -385 9 -49 26 -142 38 -205 21 -122 90 -368 124 -445 7 -16 22 -51
34 -77 33 -79 41 -71 94 102 15 49 13 58 -38 215 -36 111 -73 252 -91 355 -26
140 -25 752 0 890 23 120 61 268 91 345 13 33 25 76 28 96 5 36 16 62 104 247
49 104 49 101 -3 219 -26 58 -37 64 -58 31z"></path>
<path d="M5360 4845 c-90 -19 -159 -44 -270 -100 -81 -41 -108 -61 -183 -139
-125 -129 -181 -224 -248 -416 -10 -30 -19 -58 -19 -62 0 -14 97 -57 176 -77
256 -65 455 -46 674 65 62 32 131 75 153 96 22 21 42 38 44 38 1 0 34 32 73
71 41 42 82 96 101 133 17 33 41 81 55 106 13 25 40 80 60 124 30 65 33 81 22
91 -18 18 -167 61 -255 74 -97 15 -303 12 -383 -4z m383 -154 c26 -4 50 -10
53 -13 8 -9 -33 -85 -76 -143 -20 -27 -50 -70 -66 -95 -59 -90 -233 -204 -379
-247 -43 -13 -95 -18 -185 -18 -113 0 -244 18 -255 34 -2 4 12 33 30 66 18 33
45 83 59 111 37 73 155 177 264 235 115 60 199 78 362 78 80 0 166 -4 193 -8z"></path>
<path d="M5992 4608 c-34 -73 -38 -86 -27 -108 7 -14 23 -59 35 -100 12 -41
35 -118 51 -170 70 -232 99 -440 99 -720 0 -208 -16 -374 -51 -520 -39 -165
-52 -215 -66 -242 -7 -15 -13 -37 -13 -49 0 -29 -43 -147 -83 -226 l-31 -64
18 -52 c22 -62 64 -137 77 -137 10 0 39 62 59 125 7 22 27 72 45 110 54 118
121 343 136 455 5 36 13 88 19 115 80 405 43 938 -97 1400 -20 68 -108 258
-121 263 -6 2 -28 -34 -50 -80z"></path>
<path d="M1444 4293 c-19 -43 -69 -201 -91 -283 -14 -55 -20 -110 -43 -371
-10 -107 -10 -165 0 -265 6 -71 15 -174 20 -229 16 -181 26 -193 124 -147 36
17 66 35 66 40 0 5 -9 51 -21 103 -16 73 -22 142 -26 310 -6 235 2 326 42 489
14 54 25 110 25 124 0 14 14 60 30 102 24 59 28 79 19 90 -6 8 -17 14 -23 14
-6 0 -29 14 -50 30 -22 17 -43 30 -48 30 -4 0 -15 -17 -24 -37z"></path>
<path d="M3425 4276 c-203 -109 -285 -155 -345 -197 -82 -56 -148 -94 -180
-104 -14 -4 -38 -17 -55 -29 -57 -41 -200 -126 -252 -151 -59 -28 -174 -99
-263 -163 -53 -37 -60 -46 -60 -76 0 -19 6 -41 13 -48 22 -25 57 -77 57 -87 0
-15 51 -51 73 -51 11 0 68 25 126 56 58 31 158 83 221 116 167 87 237 126 310
173 36 23 85 52 110 64 25 12 90 48 145 81 55 34 124 72 154 86 l54 25 96 -58
c53 -31 114 -70 136 -86 22 -15 75 -49 117 -75 43 -26 124 -76 180 -111 107
-66 179 -109 213 -129 11 -6 59 -33 106 -61 48 -28 93 -51 101 -51 8 0 23 -9
32 -19 40 -44 114 -51 135 -12 6 10 24 33 41 51 17 18 38 49 46 69 14 32 14
39 0 69 -9 18 -24 35 -33 38 -24 7 -21 6 -170 107 -71 48 -136 87 -145 87 -8
0 -21 7 -28 15 -6 8 -48 35 -92 61 -44 26 -93 58 -108 71 -16 13 -45 30 -65
39 -41 17 -109 59 -139 87 -11 9 -23 17 -27 17 -4 0 -20 11 -36 24 -15 12 -48
34 -73 48 -25 14 -79 46 -121 72 -42 25 -80 46 -84 46 -4 0 -20 11 -37 25 -16
14 -39 25 -51 25 -12 -1 -58 -20 -102 -44z"></path>
<path d="M5505 4071 c-64 -29 -70 -41 -57 -119 37 -223 49 -457 32 -622 -6
-63 -15 -151 -20 -195 -5 -44 -16 -100 -24 -124 -26 -70 -22 -84 37 -130 52
-39 80 -50 91 -33 4 7 36 148 73 322 15 69 18 133 18 335 0 257 -2 275 -52
490 -23 103 -29 107 -98 76z"></path>
<path d="M3400 3738 c-18 -30 -20 -51 -20 -215 l0 -183 -277 0 c-203 -1 -282
-4 -294 -13 -30 -23 -39 -56 -39 -142 0 -96 15 -139 52 -149 13 -3 143 -6 291
-6 l267 0 0 -469 c0 -569 -13 -521 146 -521 98 0 107 2 129 25 l25 24 0 471 0
470 280 0 281 0 24 25 c23 23 25 31 25 130 0 99 -2 107 -25 130 l-24 25 -281
0 -280 0 0 186 0 186 -29 29 c-29 28 -32 29 -130 29 l-101 0 -20 -32z"></path>
<path d="M1679 3030 c-219 -47 -461 -215 -563 -390 -55 -94 -101 -196 -127
-275 l-19 -60 21 -17 c12 -10 31 -18 44 -18 12 0 42 -7 66 -16 138 -49 339
-66 468 -40 47 10 103 24 125 32 23 9 59 20 81 25 22 6 55 20 75 32 46 28 250
196 250 206 0 4 29 47 65 94 35 48 78 113 94 144 33 63 81 186 81 206 0 12
-48 34 -120 56 -143 43 -393 53 -541 21z m388 -161 c35 -6 63 -14 63 -18 -1
-3 -20 -41 -43 -84 -53 -98 -199 -257 -265 -290 -26 -13 -69 -35 -97 -49 -27
-15 -88 -37 -135 -49 -72 -18 -102 -21 -200 -16 -63 3 -139 11 -168 18 -50 12
-53 14 -47 38 11 42 96 179 142 227 24 24 43 48 43 53 0 4 46 35 103 69 94 56
142 74 282 105 42 9 261 7 322 -4z"></path>
<path d="M4760 3000 c-36 -5 -99 -17 -140 -28 -70 -17 -75 -20 -78 -47 -5 -43
17 -139 54 -235 18 -47 37 -104 43 -126 6 -23 21 -56 34 -75 13 -19 34 -56 47
-84 32 -67 246 -284 315 -318 28 -14 77 -39 110 -56 76 -38 164 -65 288 -87
78 -13 131 -16 270 -11 94 3 199 12 232 19 l60 13 -2 40 c-4 50 -44 174 -95
290 -22 50 -46 104 -53 120 -33 80 -215 305 -277 345 -21 13 -52 38 -70 55
-34 32 -51 42 -172 102 -149 73 -383 108 -566 83z m416 -189 c106 -37 217
-100 286 -161 62 -56 188 -200 188 -215 0 -4 24 -50 54 -104 57 -102 105 -225
93 -237 -13 -13 -288 -6 -379 9 -109 19 -255 82 -328 142 -30 25 -60 45 -65
45 -16 0 -79 68 -110 120 -15 25 -40 59 -54 75 -38 44 -120 215 -131 275 -5
29 -12 55 -15 60 -8 13 74 18 246 15 125 -3 167 -8 215 -24z"></path>
<path d="M3070 2810 c-30 -22 -66 -45 -80 -52 -36 -17 -324 -202 -392 -251
-45 -31 -58 -47 -58 -66 0 -33 90 -174 125 -197 26 -17 28 -16 98 20 40 20
122 72 183 114 61 42 122 84 136 92 110 64 208 149 208 180 0 24 -83 168 -108
188 -26 20 -54 13 -112 -28z"></path>
<path d="M3887 2832 c-10 -10 -17 -23 -17 -29 0 -6 -16 -31 -36 -55 -20 -23
-41 -53 -47 -65 -15 -33 0 -70 37 -95 18 -13 59 -42 90 -66 32 -24 83 -57 115
-73 32 -17 76 -45 97 -63 41 -35 166 -116 179 -116 4 0 19 -9 33 -21 30 -23
65 -19 99 13 43 40 103 143 103 176 0 28 -8 37 -85 87 -47 30 -106 71 -132 91
-27 20 -66 45 -88 54 -22 10 -57 32 -79 49 -21 17 -44 31 -51 31 -6 0 -44 23
-84 50 -78 54 -108 61 -134 32z"></path>
<path d="M1798 2238 c-38 -17 -68 -36 -68 -43 0 -14 174 -203 245 -266 28 -24
77 -69 110 -99 33 -30 106 -86 163 -125 205 -141 279 -185 310 -185 10 0 40
-11 68 -24 110 -55 280 -110 469 -151 81 -18 87 -12 83 84 l-3 76 -50 13 c-27
6 -75 15 -105 18 -84 9 -262 70 -392 135 -65 33 -122 59 -127 59 -18 0 -213
141 -240 173 -7 10 -18 17 -23 17 -9 0 -105 71 -123 91 -5 6 -52 53 -102 104
-51 50 -93 99 -93 107 0 16 -31 48 -46 47 -5 0 -39 -14 -76 -31z"></path>
<path d="M977 2233 c-8 -7 40 -93 99 -178 23 -33 51 -76 62 -96 64 -115 403
-494 554 -621 76 -64 174 -138 183 -138 3 0 24 -13 47 -30 22 -16 45 -30 51
-30 5 0 53 -26 106 -59 176 -107 366 -194 571 -259 166 -53 178 -56 370 -86
403 -63 568 -60 1055 19 142 23 353 90 491 155 34 17 66 30 72 30 17 0 225
112 290 157 35 24 69 43 75 43 19 0 172 104 272 186 50 40 145 130 210 200 66
70 135 143 153 162 17 19 32 36 32 39 0 3 25 37 56 75 30 37 52 73 49 78 -3 6
-46 10 -94 10 l-88 0 -97 -110 c-53 -60 -96 -114 -96 -119 0 -15 -339 -311
-356 -311 -3 0 -40 -24 -82 -53 -136 -93 -584 -305 -677 -320 -32 -5 -269 -63
-320 -77 -79 -24 -291 -42 -475 -42 -257 0 -366 14 -620 78 -52 13 -115 29
-140 35 -133 31 -231 71 -445 181 -16 9 -57 28 -90 43 -79 37 -69 32 -167 98
-47 31 -90 57 -97 57 -6 0 -11 4 -11 8 0 5 -30 30 -67 57 -37 27 -86 67 -110
90 -24 22 -56 50 -72 63 -34 26 -321 366 -321 380 0 5 -9 17 -21 28 -11 10
-50 60 -85 110 -68 98 -64 96 -198 138 -56 18 -60 19 -69 9z"></path>
<path d="M4876 2045 c-26 -30 -52 -55 -58 -55 -6 0 -27 -14 -47 -30 -140 -119
-237 -191 -291 -216 -19 -9 -43 -21 -53 -26 -196 -99 -360 -163 -465 -178 -37
-6 -83 -14 -102 -18 l-35 -8 -5 -72 c-3 -40 -3 -77 -2 -82 4 -12 65 -13 112 0
196 51 377 113 427 145 12 8 29 15 38 15 38 0 297 163 420 264 82 66 245 218
245 227 0 9 -114 89 -128 89 -4 0 -30 -25 -56 -55z"></path>
<path d="M3451 1939 c-25 -22 -49 -48 -55 -58 -6 -10 -37 -61 -69 -113 -76
-124 -111 -253 -103 -373 5 -81 26 -159 55 -205 45 -73 154 -211 184 -234 l35
-27 41 25 c23 15 52 43 66 64 13 20 44 64 68 97 62 87 87 144 104 241 16 96 9
175 -26 277 -21 60 -110 215 -136 237 -8 7 -15 17 -15 22 0 13 -81 87 -95 87
-5 0 -30 -18 -54 -40z m112 -265 c30 -60 60 -205 53 -263 -13 -111 -67 -241
-106 -256 -18 -8 -78 58 -86 95 -3 14 -12 45 -20 69 -35 109 1 303 73 398 l26
34 23 -24 c12 -13 29 -37 37 -53z"></path>
</g>
</svg>